# xmcd CD database file
#
# Track frame offsets:
#	150
#	16060
#	39472
#
# Disc length: 736 seconds
#
# Revision: 0
# Processed by: cddbd v1.5.1PL0 Copyright (c) Steve Scherf et al.
# Submitted via: CDex 1.51
#
DISCID=1602de03
DTITLE=谷村有美 - 今夜あなたにフラれたい
DYEAR=1994
DGENRE=JPop
TTITLE0=今夜あなたにフラれたい
TTITLE1=彼女のフィアンセ
TTITLE2=今夜あなたにフラれたい（カラオケ)
EXTD=YEAR: 1994
EXTT0=
EXTT1=
EXTT2=
PLAYORDER=
